<svg xmlns="http://www.w3.org/2000/svg" viewBox="0 0 267.78 210.86"><defs><style>.cls-1{fill:#f2f2f2;}.cls-2{fill:none;stroke:#f2f2f2;stroke-linecap:round;stroke-miterlimit:10;stroke-width:2px;}</style></defs><g id="Layer_2" data-name="Layer 2"><g id="Objects"><path class="cls-1" d="M146.22,165.12c1.71-.92,13.28-7.32,13.28-7.32v-.07l0,0-11.34,4.59a.2.2,0,0,1-.26-.09.19.19,0,0,1,.1-.26l10.77-5.79v-.07l-.05,0-11.35,4.55s-.18.08-.25-.08.1-.24.1-.24L158,154.49v-.06l0-.06-11.36,4.54a.2.2,0,0,1-.26-.09.21.21,0,0,1,.09-.26l10.82-5.73v-.07l-.05,0s-12.34,4.75-14.15,5.46a.32.32,0,0,0-.21.38,4.86,4.86,0,0,1-1.55,3.78c-1.57,1.75-25.46,10.85-30.68,12.73a5,5,0,0,0-3.17,4h0a5,5,0,0,0,5.06.1c4.79-2.79,27.12-15.25,29.47-15.32a4.93,4.93,0,0,1,3.9,1.24A.31.31,0,0,0,146.22,165.12Zm-35.33,10.26a6.58,6.58,0,0,1,1.38-.4,12.22,12.22,0,0,0-2.44,1.19,6.41,6.41,0,0,0-2,2.62A4.91,4.91,0,0,1,110.89,175.38Zm34.94-10.62a4.65,4.65,0,0,0-3.82-1.27,5.53,5.53,0,0,1,3.33.58c.25.12.8.44,1.21.31s1.21-.51,3-1.38l-3.29,1.84A.33.33,0,0,1,145.83,164.76Z"/><path class="cls-1" d="M156.45,174.78c-2.67-1-13.42-5.27-23.26-9.71-9.6-5.37-20.82-9.83-22.52-10.76s-2.82.39-1.07,2.81c2.9,4,14.57,10.4,22,10.52.17,0,.24,0,.39.06,3.22.72,18,8.47,22.56,11.13a5,5,0,0,0,5.05-.1h0A5,5,0,0,0,156.45,174.78ZM110.81,158a3,3,0,0,1-.73-.75c-1.15-1.47-1.32-2.49-.82-2.92a2.09,2.09,0,0,0,.3,1.92A11,11,0,0,0,110.81,158Zm21.83,9.33a.5.5,0,0,1-.66.19.76.76,0,0,0,.37-.36l.81-1.72a.17.17,0,1,1,.3.15Zm26.52,11.15a6.38,6.38,0,0,0-2-2.63,12.22,12.22,0,0,0-2.44-1.19,6.45,6.45,0,0,1,1.37.4A4.9,4.9,0,0,1,159.16,178.45Z"/><line class="cls-2" x1="1" y1="140.62" x2="266.78" y2="140.62"/><line class="cls-2" x1="1" y1="70.24" x2="266.78" y2="70.24"/><path class="cls-2" d="M40.78,70.24a103,103,0,0,1,186.23,0h11.15a113.13,113.13,0,0,0-208.54,0Z"/><path class="cls-1" d="M63.8,58.34l1-1.59,1.59,1-1,1.59Z"/><path class="cls-1" d="M63,50.23l3.36-4,1.38,1.15-2.09,2.5,2.69,2.26,1.64-2,1.38,1.15-1.64,2,4.21,3.53-1.28,1.52Z"/><path class="cls-1" d="M76.1,53.3a3.35,3.35,0,0,1-2.2-1.13l-4.63-4.73a3.3,3.3,0,0,1-1.09-2.21,3.41,3.41,0,0,1,3.19-3.13,3.3,3.3,0,0,1,2.19,1.13L78.2,48a3.31,3.31,0,0,1,1.08,2.21A3.43,3.43,0,0,1,76.1,53.3Zm.77-3.87-4.82-4.9c-.57-.6-1.11-.65-1.6-.17s-.44,1,.14,1.6l4.82,4.91c.58.59,1.11.65,1.6.17S77.45,50,76.87,49.43Z"/><path class="cls-1" d="M80.75,48.87a3.33,3.33,0,0,1-2.07-1.34l-4.15-5.16a3.36,3.36,0,0,1-.87-2.31,3,3,0,0,1,1.22-2,2.9,2.9,0,0,1,2.26-.76,3.29,3.29,0,0,1,2.07,1.34l4.15,5.16a3.24,3.24,0,0,1,.87,2.31,3.44,3.44,0,0,1-3.48,2.8ZM81.9,45.1l-4.31-5.36c-.52-.64-1-.75-1.58-.32s-.54,1,0,1.61l4.31,5.35c.52.65,1,.76,1.58.33S82.42,45.74,81.9,45.1Z"/><path class="cls-1" d="M78.73,35.26l2.52-1.67A2.91,2.91,0,0,1,83.54,33a3.28,3.28,0,0,1,1.89,1.53L89,39.87a3.38,3.38,0,0,1,.67,2.35,2.88,2.88,0,0,1-1.41,1.88l-2.53,1.67Zm8.45,7.36a1,1,0,0,0,.47-.65,1.37,1.37,0,0,0-.3-.93l-3.62-5.46a1.38,1.38,0,0,0-.73-.64,1,1,0,0,0-.78.17l-.84.56,5,7.51Z"/><path class="cls-1" d="M93.23,40.39a3.56,3.56,0,0,1-1.46-1.67l-.59-1.17a3.62,3.62,0,0,1-.43-1.64,2,2,0,0,1,.56-1.37l0,0A2,2,0,0,1,90,34.15a3.48,3.48,0,0,1-1-1.33l-.11-.2a3.31,3.31,0,0,1-.38-2.41,2.87,2.87,0,0,1,1.62-1.7l2-1,.81,1.61-2,1a1,1,0,0,0-.54.59,1.48,1.48,0,0,0,.19,1l.35.69a1.39,1.39,0,0,0,.72.78,1.16,1.16,0,0,0,.94-.12l.69-.35-.63-1.25,1.74-.88L95,31.78l.5-.25.8,1.61-.5.25,1.86,3.7a7.58,7.58,0,0,0,.42.76,2,2,0,0,0,.46.51l-1.77.89a3.28,3.28,0,0,1-.61-.81l0,0a2.57,2.57,0,0,1-.27,1.12,1.85,1.85,0,0,1-.82.73A1.91,1.91,0,0,1,93.23,40.39Zm2.12-3.52L94,34.26l-.67.34a1.19,1.19,0,0,0-.72.77,2,2,0,0,0,.28,1.24l.57,1.14a1.34,1.34,0,0,0,.63.7.92.92,0,0,0,.75-.08C95.44,38.09,95.59,37.59,95.35,36.87Z"/><path class="cls-1" d="M96.88,25.38l2.84-1.05a2.9,2.9,0,0,1,2.35,0,3.25,3.25,0,0,1,1.49,1.92l2.2,6a3.31,3.31,0,0,1,.11,2.44,2.94,2.94,0,0,1-1.81,1.5l-2.84,1.05Zm6.53,9.11A1,1,0,0,0,104,34a1.41,1.41,0,0,0-.08-1l-2.26-6.15a1.4,1.4,0,0,0-.56-.79,1,1,0,0,0-.81,0l-.94.34,3.1,8.45Z"/><path class="cls-1" d="M104,22.84l2.83-.79a3,3,0,0,1,2.34.08,3,3,0,0,1,1.26,1.92l.21.75c.35,1.26.16,2.17-.58,2.74v0a1.54,1.54,0,0,1,1.22.58,4.42,4.42,0,0,1,.76,1.63l.6,2.13q.15.52.27.84a2.19,2.19,0,0,0,.35.58l-1.94.54a2.43,2.43,0,0,1-.29-.51,6.35,6.35,0,0,1-.3-.93l-.62-2.22a1.93,1.93,0,0,0-.6-1.08,1.14,1.14,0,0,0-1-.07l-.66.18,1.45,5.2-1.91.53Zm4.06,4.47a1.14,1.14,0,0,0,.77-.53,1.43,1.43,0,0,0,0-1.07l-.26-.94a1.55,1.55,0,0,0-.5-.88.88.88,0,0,0-.82-.09l-.87.24,1,3.47Z"/><path class="cls-1" d="M111,21l1.94-.43,2.72,12.3-1.94.43Z"/><path class="cls-1" d="M114.42,20.21l2.45-.4L120,26.94h0l-1.21-7.45,1.74-.28,2,12.44-2,.32-3.82-8.7h0l1.47,9.08-1.74.28Z"/><path class="cls-1" d="M122.21,19l2-.17.45,5.29,2.06-5.5,2-.17-2,4.81L129.76,31l-2.06.18-2.14-5.46-.66,1.67.34,4-2,.16Z"/><path class="cls-1" d="M130.37,30.39a3.35,3.35,0,0,1-.77-2.33l0-.73,1.88,0v.86c0,.82.36,1.22,1,1.21a.94.94,0,0,0,.76-.31,1.42,1.42,0,0,0,.25-1,2.65,2.65,0,0,0-.38-1.39,6.75,6.75,0,0,0-1.35-1.43,7.85,7.85,0,0,1-1.74-1.93,4,4,0,0,1-.51-2,3.23,3.23,0,0,1,.72-2.32,2.87,2.87,0,0,1,2.18-.85,2.76,2.76,0,0,1,2.17.79,3.47,3.47,0,0,1,.76,2.34v.52l-1.88,0v-.65a1.41,1.41,0,0,0-.26-.94.92.92,0,0,0-.74-.29c-.66,0-1,.42-1,1.22a2.4,2.4,0,0,0,.39,1.27,6.85,6.85,0,0,0,1.36,1.42A7.47,7.47,0,0,1,135,25.87a4.37,4.37,0,0,1,.5,2.07,3.4,3.4,0,0,1-.73,2.38,2.87,2.87,0,0,1-2.21.86A2.79,2.79,0,0,1,130.37,30.39Z"/><path class="cls-1" d="M138.7,30.52a3.49,3.49,0,0,1-.38-2.18l.1-1.31a3.69,3.69,0,0,1,.48-1.62,2,2,0,0,1,1.19-.88v0a1.89,1.89,0,0,1-1-1,3.46,3.46,0,0,1-.2-1.67l0-.23a3.31,3.31,0,0,1,.92-2.26,2.86,2.86,0,0,1,2.27-.61l2.26.18-.14,1.8L142,20.52a1,1,0,0,0-.77.22,1.37,1.37,0,0,0-.33.92l-.06.77a1.43,1.43,0,0,0,.21,1,1.18,1.18,0,0,0,.86.38l.77.06.12-1.4,1.93.16-.11,1.4.56.05-.15,1.79-.56-.05L144.18,30a7.09,7.09,0,0,0,0,.87,1.93,1.93,0,0,0,.12.67l-2-.16a3.28,3.28,0,0,1-.1-1h0a2.44,2.44,0,0,1-.81.82,1.88,1.88,0,0,1-1.08.2A1.94,1.94,0,0,1,138.7,30.52Zm3.64-1.91.24-2.9-.76-.06a1.22,1.22,0,0,0-1,.28,1.93,1.93,0,0,0-.41,1.21l-.1,1.27a1.29,1.29,0,0,0,.18.92,1,1,0,0,0,.68.33C141.78,29.71,142.17,29.36,142.34,28.61Z"/><path class="cls-1" d="M147.94,31.42a3.36,3.36,0,0,1-.32-2.45l1.19-6.52A3.28,3.28,0,0,1,150,20.28a2.78,2.78,0,0,1,2.3-.41,2.83,2.83,0,0,1,2,1.2,3.38,3.38,0,0,1,.32,2.44l-.2,1.07-1.84-.34.22-1.19c.15-.81-.11-1.28-.79-1.4s-1.08.22-1.23,1l-1.24,6.79c-.15.8.12,1.26.79,1.38s1.08-.21,1.23-1l.44-2.42-1-.18.32-1.77,2.82.52L153.43,30a3.33,3.33,0,0,1-1.17,2.17,2.84,2.84,0,0,1-2.31.42A2.9,2.9,0,0,1,147.94,31.42Z"/><path class="cls-1" d="M154.17,32.62a3.28,3.28,0,0,1-.15-2.46l1.67-6.41A3.28,3.28,0,0,1,157,21.68a3,3,0,0,1,2.37-.24,2.91,2.91,0,0,1,2,1.37,3.25,3.25,0,0,1,.16,2.45l-1.67,6.41a3.25,3.25,0,0,1-1.34,2.07,2.84,2.84,0,0,1-2.36.24A2.9,2.9,0,0,1,154.17,32.62Zm3.72-1.32,1.73-6.66c.21-.8,0-1.29-.68-1.46s-1.1.14-1.31.95l-1.73,6.65c-.21.8,0,1.29.68,1.46S157.68,32.1,157.89,31.3Z"/><path class="cls-1" d="M160.44,34.33a3.32,3.32,0,0,1,0-2.46l2.16-6.26a3.29,3.29,0,0,1,1.49-2,3.41,3.41,0,0,1,4.22,1.45,3.29,3.29,0,0,1,0,2.47l-2.16,6.26a3.3,3.3,0,0,1-1.5,2,3.43,3.43,0,0,1-4.22-1.46Zm3.81-1,2.24-6.5c.27-.78.08-1.28-.56-1.51s-1.11.06-1.38.84l-2.24,6.5c-.27.79-.08,1.29.56,1.51S164,34.09,164.25,33.3Z"/><path class="cls-1" d="M170.8,25.33l2.77,1.22a2.83,2.83,0,0,1,1.7,1.61,3.29,3.29,0,0,1-.25,2.43l-2.56,5.83a3.33,3.33,0,0,1-1.61,1.83,2.9,2.9,0,0,1-2.35-.16l-2.77-1.22Zm-1.61,11.09a.94.94,0,0,0,.8,0,1.42,1.42,0,0,0,.62-.75l2.63-6a1.41,1.41,0,0,0,.14-1,.94.94,0,0,0-.57-.57l-.92-.4L168.27,36Z"/><path class="cls-1" d="M180.23,29.7l2.42,1.47-3.6,8.36,0,0,5.74-7.06L187.25,34l-6.52,10.78-1.61-1,4.94-8.16,0,0L177.86,43l-1.41-.86,3.7-8.91h0l-4.94,8.16-1.48-.9Z"/><path class="cls-1" d="M182.11,45a3.32,3.32,0,0,1,.8-2.33l4-5.27A3.31,3.31,0,0,1,189,36a3.45,3.45,0,0,1,3.55,2.71,3.34,3.34,0,0,1-.81,2.33l-4,5.27a3.32,3.32,0,0,1-2,1.39A3.43,3.43,0,0,1,182.11,45Zm3.93.21,4.17-5.46c.51-.66.49-1.2-.06-1.61s-1.07-.3-1.57.36L184.41,44c-.5.66-.48,1.19.06,1.61S185.54,45.88,186,45.22Z"/><path class="cls-1" d="M187.19,49a3.31,3.31,0,0,1,1-2.24l4.51-4.85a3.26,3.26,0,0,1,2.15-1.19,3.43,3.43,0,0,1,3.28,3,3.31,3.31,0,0,1-1,2.24l-4.51,4.85A3.25,3.25,0,0,1,190.46,52a2.94,2.94,0,0,1-2.2-.91A2.9,2.9,0,0,1,187.19,49Zm3.9.6,4.67-5c.57-.61.6-1.14.1-1.61s-1-.39-1.6.21l-4.68,5c-.56.61-.59,1.14-.09,1.61S190.52,50.21,191.09,49.6Z"/><path class="cls-1" d="M200.41,45.1l2,2.28a2.84,2.84,0,0,1,.86,2.18A3.26,3.26,0,0,1,202,51.65l-4.79,4.19a3.34,3.34,0,0,1-2.24,1,2.92,2.92,0,0,1-2.05-1.15l-2-2.28Zm-6.16,9.36a1,1,0,0,0,.71.37,1.3,1.3,0,0,0,.87-.42l4.94-4.31a1.43,1.43,0,0,0,.53-.81,1,1,0,0,0-.28-.76l-.66-.75-6.77,5.92Z"/><path class="cls-1" d="M202.48,56.1l1.07,1.57L202,58.75l-1.08-1.58Z"/><path class="cls-2" d="M227,140.62a103,103,0,0,1-186.23,0H29.62a113.13,113.13,0,0,0,208.54,0Z"/><path class="cls-1" d="M2.26,91.44h4.5v28.65H2.26Z"/><path class="cls-1" d="M8.93,91.44h6.43l2.86,20.5h.08l2.87-20.5h6.42v28.65H23.34V98.4h-.09L20,120.09H16.21L12.94,98.4h-.08v21.69H8.93Z"/><path class="cls-1" d="M33.24,91.44h6.1L44,120.09H39.5l-.82-5.69v.08H33.57l-.82,5.61H28.58Zm4.91,19.15-2-14.16h-.08l-2,14.16Z"/><path class="cls-1" d="M46.38,118.64a7.61,7.61,0,0,1-1.72-5.35V98.23a7.57,7.57,0,0,1,1.72-5.34,6.47,6.47,0,0,1,5-1.86,6.47,6.47,0,0,1,5,1.86,7.61,7.61,0,0,1,1.71,5.34v2.46H53.83V98c0-1.89-.78-2.83-2.33-2.83s-2.34.94-2.34,2.83v15.67q0,2.79,2.34,2.79c1.55,0,2.33-.93,2.33-2.79V108H51.58v-4.09h6.5v9.37a7.66,7.66,0,0,1-1.71,5.35,6.47,6.47,0,0,1-5,1.86A6.47,6.47,0,0,1,46.38,118.64Z"/><path class="cls-1" d="M59.8,91.44h4.51v28.65H59.8Z"/><path class="cls-1" d="M66.47,91.44h5.65l4.38,17.15h.08V91.44h4v28.65H76l-5.4-20.92h-.08v20.92h-4Z"/><path class="cls-1" d="M86.24,91.44h6.1L97,120.09h-4.5l-.82-5.69v.08H86.57l-.82,5.61H81.58Zm4.92,19.15-2-14.16h-.08l-2,14.16Z"/><path class="cls-1" d="M98,91.44h6.67q3.48,0,5.08,1.61a6.86,6.86,0,0,1,1.59,5v1.76q0,4.45-2.94,5.65v.08a3.48,3.48,0,0,1,2.31,2,10.11,10.11,0,0,1,.68,4.06v5a17.72,17.72,0,0,0,.08,2,4.79,4.79,0,0,0,.41,1.5h-4.59a7.39,7.39,0,0,1-.33-1.31,21.13,21.13,0,0,1-.08-2.21v-5.24a4.46,4.46,0,0,0-.63-2.74,2.7,2.7,0,0,0-2.19-.78h-1.56v12.28H98Zm6.14,12.28a2.69,2.69,0,0,0,2-.7,3.28,3.28,0,0,0,.67-2.33V98.48a3.61,3.61,0,0,0-.55-2.25,2.08,2.08,0,0,0-1.74-.7h-2.05v8.19Z"/><path class="cls-1" d="M117.43,107.89,112,91.44h4.79L119.85,102h.08L123,91.44h4.38l-5.45,16.45v12.2h-4.5Z"/><path class="cls-1" d="M135,118.64a7.61,7.61,0,0,1-1.72-5.35V98.23A7.57,7.57,0,0,1,135,92.89a7.64,7.64,0,0,1,10,0,7.62,7.62,0,0,1,1.72,5.34v2.46h-4.26V98c0-1.89-.78-2.83-2.33-2.83s-2.34.94-2.34,2.83v15.67q0,2.79,2.34,2.79c1.55,0,2.33-.93,2.33-2.79V108h-2.25v-4.09h6.51v9.37a7.66,7.66,0,0,1-1.72,5.35,7.64,7.64,0,0,1-10,0Z"/><path class="cls-1" d="M151.89,91.44H158l4.67,28.65h-4.5l-.82-5.69v.08h-5.12l-.82,5.61h-4.17Zm4.92,19.15-2-14.16h-.08l-2,14.16Z"/><path class="cls-1" d="M164.54,118.64a7.75,7.75,0,0,1-1.68-5.35v-1.63h4.26v2c0,1.86.78,2.79,2.33,2.79a2.18,2.18,0,0,0,1.74-.68,3.26,3.26,0,0,0,.6-2.19,6.11,6.11,0,0,0-.82-3.17,15.39,15.39,0,0,0-3-3.3,17.87,17.87,0,0,1-3.89-4.44,9,9,0,0,1-1.1-4.48,7.5,7.5,0,0,1,1.71-5.26,6.47,6.47,0,0,1,5-1.86,6.22,6.22,0,0,1,4.89,1.86,7.8,7.8,0,0,1,1.66,5.34v1.19H172V98a3.29,3.29,0,0,0-.57-2.15,2.09,2.09,0,0,0-1.68-.68c-1.5,0-2.25.92-2.25,2.74a5.41,5.41,0,0,0,.84,2.91,15.83,15.83,0,0,0,3.05,3.27,16.86,16.86,0,0,1,3.88,4.47,9.85,9.85,0,0,1,1.07,4.7,7.7,7.7,0,0,1-1.74,5.41,6.57,6.57,0,0,1-5.06,1.88A6.33,6.33,0,0,1,164.54,118.64Z"/><path class="cls-1" d="M181.2,95.53h-4.71V91.44h13.92v4.09H185.7v24.56h-4.5Z"/><path class="cls-1" d="M191.39,91.44h6.67q3.48,0,5.08,1.61a6.86,6.86,0,0,1,1.59,5v1.76q0,4.45-2.94,5.65v.08a3.48,3.48,0,0,1,2.31,2,10.11,10.11,0,0,1,.68,4.06v5a17.72,17.72,0,0,0,.08,2,4.79,4.79,0,0,0,.41,1.5h-4.59a7.39,7.39,0,0,1-.33-1.31,21.13,21.13,0,0,1-.08-2.21v-5.24a4.46,4.46,0,0,0-.63-2.74,2.69,2.69,0,0,0-2.19-.78h-1.56v12.28h-4.5Zm6.14,12.28a2.69,2.69,0,0,0,2-.7,3.28,3.28,0,0,0,.67-2.33V98.48a3.61,3.61,0,0,0-.55-2.25,2.08,2.08,0,0,0-1.74-.7h-2.05v8.19Z"/><path class="cls-1" d="M208.13,118.62a7.53,7.53,0,0,1-1.76-5.33V98.23a7.52,7.52,0,0,1,1.76-5.32,7.79,7.79,0,0,1,10.15,0A7.48,7.48,0,0,1,220,98.23v15.06a7.49,7.49,0,0,1-1.76,5.33,7.79,7.79,0,0,1-10.15,0Zm7.41-5V98c0-1.89-.78-2.83-2.33-2.83s-2.34.94-2.34,2.83v15.63c0,1.88.78,2.83,2.34,2.83S215.54,115.46,215.54,113.58Z"/><path class="cls-1" d="M221.88,91.44h6.63a6.57,6.57,0,0,1,5,1.8,7.47,7.47,0,0,1,1.68,5.28v2.82a7.47,7.47,0,0,1-1.68,5.28,6.57,6.57,0,0,1-5,1.8h-2.12v11.67h-4.51Zm6.63,12.89a2.12,2.12,0,0,0,1.66-.61,3.11,3.11,0,0,0,.56-2.09v-3.4a3.11,3.11,0,0,0-.56-2.09,2.15,2.15,0,0,0-1.66-.61h-2.12v8.8Z"/><path class="cls-1" d="M238.05,118.64a7.66,7.66,0,0,1-1.72-5.35V91.44h4.5v22.18a3.12,3.12,0,0,0,.6,2.13,2.16,2.16,0,0,0,1.7.66,2.19,2.19,0,0,0,1.7-.66,3.17,3.17,0,0,0,.59-2.13V91.44h4.34v21.85a7.66,7.66,0,0,1-1.72,5.35,7.64,7.64,0,0,1-10,0Z"/><path class="cls-1" d="M251.76,91.44h6.8q3.48,0,5.07,1.61a6.82,6.82,0,0,1,1.6,5v1.14a7.86,7.86,0,0,1-.72,3.61,4.24,4.24,0,0,1-2.19,2v.08q3.36,1.15,3.36,6v2.45a6.1,6.1,0,0,1-6.84,6.8h-7.08ZM258,103.1a2.73,2.73,0,0,0,2-.69,3.3,3.3,0,0,0,.68-2.34V98.48a3.6,3.6,0,0,0-.56-2.25,2.08,2.08,0,0,0-1.74-.7h-2.17v7.57Zm.82,12.9a2.23,2.23,0,0,0,1.76-.64,3.27,3.27,0,0,0,.58-2.19v-2.5a4.17,4.17,0,0,0-.68-2.72,2.87,2.87,0,0,0-2.23-.75h-2V116Z"/><path class="cls-1" d="M78.73,157.89A2.93,2.93,0,1,1,75.8,155,2.93,2.93,0,0,1,78.73,157.89Z"/><path class="cls-1" d="M189.06,157.89A2.93,2.93,0,1,0,192,155,2.92,2.92,0,0,0,189.06,157.89Z"/><path class="cls-1" d="M100.62,55.72h1.91v1.91h-1.91Z"/><path class="cls-1" d="M106.24,62.34A3.36,3.36,0,0,1,105.5,60v-.72h1.87v.86c0,.82.34,1.23,1,1.23a1,1,0,0,0,.76-.3,1.41,1.41,0,0,0,.26-1,2.68,2.68,0,0,0-.36-1.4,6.77,6.77,0,0,0-1.33-1.45,8.28,8.28,0,0,1-1.71-2,4,4,0,0,1-.48-2,3.28,3.28,0,0,1,.75-2.31,2.83,2.83,0,0,1,2.2-.82,2.72,2.72,0,0,1,2.15.82,3.42,3.42,0,0,1,.73,2.34v.53H109.5v-.65a1.46,1.46,0,0,0-.26-1,.93.93,0,0,0-.74-.29c-.66,0-1,.4-1,1.2a2.43,2.43,0,0,0,.36,1.28,7,7,0,0,0,1.35,1.44,7.68,7.68,0,0,1,1.71,2A4.39,4.39,0,0,1,111.4,60a3.39,3.39,0,0,1-.76,2.38,2.88,2.88,0,0,1-2.22.83A2.81,2.81,0,0,1,106.24,62.34Z"/><path class="cls-1" d="M112,50.38h2V63h-2Z"/><path class="cls-1" d="M115,50.38h2.48l1.93,7.54h0V50.38h1.77V63h-2l-2.37-9.2h0V63H115Z"/><path class="cls-1" d="M122.73,62.35a3.25,3.25,0,0,1-.74-2.29V53.29a3.23,3.23,0,0,1,.74-2.28,3.31,3.31,0,0,1,4.34,0,3.23,3.23,0,0,1,.75,2.28v1.33H126V53.17Q126,52,125,52t-1,1.17v7c0,.77.33,1.16,1,1.16s1-.39,1-1.16V58.28h1.87v1.78a3.26,3.26,0,0,1-.75,2.29,3.31,3.31,0,0,1-4.34,0Z"/><path class="cls-1" d="M128.48,50.38h5.4v1.8h-3.42v3.33h2.72v1.8h-2.72v3.87h3.42V63h-5.4Z"/><path class="cls-1" d="M136.82,61.61a5.65,5.65,0,0,1,.43-2.32,8,8,0,0,1,1.55-2.13,9.22,9.22,0,0,0,1.52-2,3.73,3.73,0,0,0,.42-1.72,1.86,1.86,0,0,0-.26-1.13.93.93,0,0,0-.76-.31c-.69,0-1,.41-1,1.24v1.35h-1.87V53.36a3.32,3.32,0,0,1,.75-2.34,3.36,3.36,0,0,1,4.4,0,3.32,3.32,0,0,1,.75,2.34,4.92,4.92,0,0,1-.55,2.25,10.6,10.6,0,0,1-1.9,2.52,7.88,7.88,0,0,0-1.18,1.53,2.57,2.57,0,0,0-.31,1.25v.27h3.76V63h-5.72Z"/><path class="cls-1" d="M144.16,62.33a3.32,3.32,0,0,1-.77-2.34V53.36a3.35,3.35,0,0,1,.77-2.34,3.46,3.46,0,0,1,4.47,0,3.35,3.35,0,0,1,.77,2.34V60a3.32,3.32,0,0,1-.77,2.34,3.42,3.42,0,0,1-4.47,0Zm3.26-2.22V53.24c0-.83-.34-1.24-1-1.24s-1,.41-1,1.24v6.87c0,.83.34,1.25,1,1.25S147.42,60.94,147.42,60.11Z"/><path class="cls-1" d="M150.17,61.61a5.82,5.82,0,0,1,.43-2.32,8.18,8.18,0,0,1,1.55-2.13,9.22,9.22,0,0,0,1.52-2,3.63,3.63,0,0,0,.43-1.72,1.86,1.86,0,0,0-.26-1.13,1,1,0,0,0-.77-.31c-.68,0-1,.41-1,1.24v1.35h-1.87V53.36a3.28,3.28,0,0,1,.76-2.34,3.35,3.35,0,0,1,4.39,0,3.33,3.33,0,0,1,.76,2.34,5,5,0,0,1-.55,2.25,10.88,10.88,0,0,1-1.9,2.52,7.62,7.62,0,0,0-1.19,1.53,2.69,2.69,0,0,0-.31,1.25v.27h3.77V63h-5.73Z"/><path class="cls-1" d="M156.85,61.61a5.65,5.65,0,0,1,.43-2.32,8.18,8.18,0,0,1,1.55-2.13,9.22,9.22,0,0,0,1.52-2,3.73,3.73,0,0,0,.42-1.72,1.79,1.79,0,0,0-.26-1.13.93.93,0,0,0-.76-.31c-.69,0-1,.41-1,1.24v1.35h-1.87V53.36a3.28,3.28,0,0,1,.76-2.34,2.81,2.81,0,0,1,2.19-.82A2.84,2.84,0,0,1,162,51a3.32,3.32,0,0,1,.75,2.34,5,5,0,0,1-.54,2.25,10.88,10.88,0,0,1-1.9,2.52,7.62,7.62,0,0,0-1.19,1.53,2.57,2.57,0,0,0-.31,1.25v.27h3.76V63h-5.72Z"/><path class="cls-1" d="M165.92,55.72h1.91v1.91h-1.91Z"/></g></g></svg>