<svg xmlns="http://www.w3.org/2000/svg" viewBox="0 0 35.03 29.46"><defs><style>.cls-1{fill:#f2f2f2;}</style></defs><g id="Layer_2" data-name="Layer 2"><g id="Layer_1-2" data-name="Layer 1"><g id="Layer_2-2" data-name="Layer 2"><g id="Layer_1-2-2" data-name="Layer 1-2"><g id="Layer_2-2-2" data-name="Layer 2-2"><g id="Objects"><path class="cls-1" d="M0,.41H4.5V29.06H0Z"/><path class="cls-1" d="M7.9,27.61a7.59,7.59,0,0,1-1.72-5.35v-15A7.54,7.54,0,0,1,7.9,1.86a7.65,7.65,0,0,1,10,0,7.63,7.63,0,0,1,1.72,5.35V9.67H15.36V7c0-1.89-.78-2.83-2.33-2.83S10.69,5.08,10.69,7V22.64q0,2.79,2.34,2.79c1.55,0,2.33-.93,2.33-2.79V17H13.11V12.88h6.51v9.33A7.69,7.69,0,0,1,17.9,27.6a7.65,7.65,0,0,1-10,0Z"/><path class="cls-1" d="M21.69.08h6.63a6.55,6.55,0,0,1,5,1.8A7.4,7.4,0,0,1,35,7.16V10a7.4,7.4,0,0,1-1.68,5.28,6.55,6.55,0,0,1-5,1.8H26.2V28.73H21.69ZM28.32,13A2.08,2.08,0,0,0,30,12.36a3.12,3.12,0,0,0,.56-2.09V6.88A3.12,3.12,0,0,0,30,4.79a2.17,2.17,0,0,0-1.66-.61H26.2V13Z"/></g></g></g></g></g></g></svg>