<svg xmlns="http://www.w3.org/2000/svg" viewBox="0 0 267.78 72.38"><defs><style>.cls-1{fill:none;stroke:#f2f2f2;stroke-linecap:round;stroke-miterlimit:10;stroke-width:2px;}.cls-2{fill:#f2f2f2;}</style></defs><g id="Layer_2" data-name="Layer 2"><g id="Layer_1-2" data-name="Layer 1"><g id="Layer_2-2" data-name="Layer 2"><g id="Objects"><line class="cls-1" x1="1" y1="71.38" x2="266.78" y2="71.38"/><line class="cls-1" x1="1" y1="1" x2="266.78" y2="1"/><path class="cls-1" d="M29.62,1H40.78"/><path class="cls-1" d="M227,1h11.15"/><path class="cls-2" d="M2.26,22.2h4.5V50.85H2.26Z"/><path class="cls-2" d="M8.93,22.2h6.43l2.86,20.5h.08l2.87-20.5h6.42V50.85H23.34V29.16h-.09L20,50.85H16.21L12.94,29.16h-.08V50.85H8.93Z"/><path class="cls-2" d="M33.24,22.2h6.1L44,50.85H39.5l-.82-5.69v.08H33.57l-.82,5.61H28.58Zm4.91,19.15-2-14.16h-.08l-2,14.16Z"/><path class="cls-2" d="M46.38,49.4a7.63,7.63,0,0,1-1.72-5.35V29a7.56,7.56,0,0,1,1.72-5.34,6.46,6.46,0,0,1,5-1.86,6.46,6.46,0,0,1,5,1.86A7.61,7.61,0,0,1,58.09,29v2.46H53.83V28.76c0-1.89-.78-2.83-2.33-2.83s-2.34.94-2.34,2.83V44.43q0,2.79,2.34,2.79c1.55,0,2.33-.93,2.33-2.79V38.76H51.58V34.67h6.5V44a7.62,7.62,0,0,1-1.71,5.35,6.46,6.46,0,0,1-5,1.86A6.48,6.48,0,0,1,46.38,49.4Z"/><path class="cls-2" d="M59.8,22.2h4.51V50.85H59.8Z"/><path class="cls-2" d="M66.47,22.2h5.65L76.5,39.35h.08V22.2h4V50.85H76L70.6,29.93h-.08V50.85h-4Z"/><path class="cls-2" d="M86.24,22.2h6.1L97,50.85H92.5l-.82-5.69v.08H86.57l-.82,5.61H81.58Zm4.92,19.15-2-14.16h-.08l-2,14.16Z"/><path class="cls-2" d="M98,22.2h6.67q3.48,0,5.08,1.61a6.88,6.88,0,0,1,1.59,5v1.76q0,4.45-2.94,5.65v.08a3.45,3.45,0,0,1,2.31,2,10.21,10.21,0,0,1,.68,4.06v5a19,19,0,0,0,.08,2,4.58,4.58,0,0,0,.41,1.5h-4.59a7.39,7.39,0,0,1-.33-1.31,20.31,20.31,0,0,1-.08-2.21V42.1a4.46,4.46,0,0,0-.63-2.74,2.7,2.7,0,0,0-2.19-.78H102.5V50.86H98Zm6.14,12.28a2.68,2.68,0,0,0,2-.7,3.31,3.31,0,0,0,.67-2.33V29.24a3.57,3.57,0,0,0-.55-2.25,2.06,2.06,0,0,0-1.74-.7h-2v8.19Z"/><path class="cls-2" d="M117.43,38.65,112,22.2h4.79l3.06,10.56h.08L123,22.2h4.38l-5.45,16.45v12.2h-4.5Z"/><path class="cls-2" d="M135,49.4a7.63,7.63,0,0,1-1.72-5.35V29A7.56,7.56,0,0,1,135,23.65a7.65,7.65,0,0,1,10,0A7.62,7.62,0,0,1,146.72,29v2.46h-4.26V28.76c0-1.89-.78-2.83-2.33-2.83s-2.34.94-2.34,2.83V44.43q0,2.79,2.34,2.79c1.55,0,2.33-.93,2.33-2.79V38.76h-2.25V34.67h6.51V44A7.63,7.63,0,0,1,145,49.39a7.65,7.65,0,0,1-10,0Z"/><path class="cls-2" d="M151.89,22.2H158l4.67,28.65h-4.5l-.82-5.69v.08h-5.12l-.82,5.61h-4.17Zm4.92,19.15-2-14.16h-.08l-2,14.16Z"/><path class="cls-2" d="M164.54,49.4a7.73,7.73,0,0,1-1.68-5.35V42.42h4.26v2c0,1.86.78,2.79,2.33,2.79a2.16,2.16,0,0,0,1.74-.68,3.22,3.22,0,0,0,.6-2.19,6.08,6.08,0,0,0-.82-3.17,15.43,15.43,0,0,0-3-3.3,17.76,17.76,0,0,1-3.89-4.44A9,9,0,0,1,163,29a7.49,7.49,0,0,1,1.71-5.26,6.46,6.46,0,0,1,5-1.86,6.22,6.22,0,0,1,4.89,1.86A7.8,7.8,0,0,1,176.24,29v1.19H172V28.76a3.29,3.29,0,0,0-.57-2.15,2.1,2.1,0,0,0-1.68-.68c-1.5,0-2.25.92-2.25,2.74a5.45,5.45,0,0,0,.84,2.91,15.78,15.78,0,0,0,3,3.27,16.77,16.77,0,0,1,3.88,4.47,9.83,9.83,0,0,1,1.07,4.7,7.7,7.7,0,0,1-1.74,5.41,6.57,6.57,0,0,1-5.06,1.88A6.35,6.35,0,0,1,164.54,49.4Z"/><path class="cls-2" d="M181.2,26.29h-4.71V22.2h13.92v4.09H185.7V50.85h-4.5Z"/><path class="cls-2" d="M191.39,22.2h6.67q3.48,0,5.08,1.61a6.88,6.88,0,0,1,1.59,5v1.76q0,4.45-2.94,5.65v.08a3.45,3.45,0,0,1,2.31,2,10.21,10.21,0,0,1,.68,4.06v5a19,19,0,0,0,.08,2,4.58,4.58,0,0,0,.41,1.5h-4.59a7.39,7.39,0,0,1-.33-1.31,20.31,20.31,0,0,1-.08-2.21V42.1a4.46,4.46,0,0,0-.63-2.74,2.66,2.66,0,0,0-2.19-.78h-1.56V50.86h-4.5Zm6.14,12.28a2.68,2.68,0,0,0,2-.7,3.31,3.31,0,0,0,.67-2.33V29.24a3.57,3.57,0,0,0-.55-2.25,2.06,2.06,0,0,0-1.74-.7h-2v8.19Z"/><path class="cls-2" d="M208.13,49.38a7.54,7.54,0,0,1-1.76-5.33V29a7.53,7.53,0,0,1,1.76-5.32,7.78,7.78,0,0,1,10.15,0A7.45,7.45,0,0,1,220,29V44.05a7.45,7.45,0,0,1-1.76,5.33,7.78,7.78,0,0,1-10.15,0Zm7.41-5V28.76c0-1.89-.78-2.83-2.33-2.83s-2.34.94-2.34,2.83V44.39c0,1.88.78,2.83,2.34,2.83s2.33-1,2.33-2.88Z"/><path class="cls-2" d="M221.88,22.2h6.63a6.56,6.56,0,0,1,5,1.8,7.44,7.44,0,0,1,1.68,5.28V32.1a7.44,7.44,0,0,1-1.68,5.28,6.56,6.56,0,0,1-5,1.8h-2.12V50.85h-4.51Zm6.63,12.89a2.1,2.1,0,0,0,1.66-.61,3.12,3.12,0,0,0,.56-2.09V29a3.12,3.12,0,0,0-.56-2.09,2.17,2.17,0,0,0-1.66-.61h-2.12v8.8Z"/><path class="cls-2" d="M238.05,49.4a7.63,7.63,0,0,1-1.72-5.35V22.2h4.5V44.38a3.12,3.12,0,0,0,.6,2.13,2.52,2.52,0,0,0,3.4,0,3.12,3.12,0,0,0,.59-2.13V22.2h4.34V44.05A7.63,7.63,0,0,1,248,49.4a7.65,7.65,0,0,1-10,0Z"/><path class="cls-2" d="M251.76,22.2h6.8q3.48,0,5.07,1.61a6.81,6.81,0,0,1,1.6,5V30a7.89,7.89,0,0,1-.72,3.61,4.23,4.23,0,0,1-2.19,2v.08q3.36,1.15,3.36,6v2.45a6.1,6.1,0,0,1-5.3,6.8,5.67,5.67,0,0,1-1.54,0h-7.08ZM258,33.86a2.73,2.73,0,0,0,2-.69,3.28,3.28,0,0,0,.68-2.34V29.24a3.58,3.58,0,0,0-.56-2.25,2.06,2.06,0,0,0-1.74-.7h-2.17v7.57Zm.82,12.9a2.22,2.22,0,0,0,1.76-.64,3.28,3.28,0,0,0,.58-2.19v-2.5a4.21,4.21,0,0,0-.68-2.72,2.85,2.85,0,0,0-2.23-.75h-2v8.8Z"/></g></g></g></g></svg>